<svg width="24" height="24" viewBox="0 0 24 24" fill="none" xmlns="http://www.w3.org/2000/svg"><path fill-rule="evenodd" clip-rule="evenodd" d="M12 3C7.02944 3 3 7.02944 3 12C3 16.9706 7.02944 21 12 21C16.9706 21 21 16.9706 21 12C21 7.02944 16.9706 3 12 3ZM5 12C5 8.13401 8.13401 5 12 5C13.5725 5 15.0239 5.51851 16.1925 6.39389L6.39389 16.1925C5.51851 15.0239 5 13.5725 5 12ZM7.80819 17.6067C8.97671 18.4817 10.4278 19 12 19C15.866 19 19 15.866 19 12C19 10.4278 18.4817 8.97671 17.6067 7.80819L7.80819 17.6067Z" fill="currentColor"></path></svg>