<?xml version="1.0" standalone="no"?><!DOCTYPE svg PUBLIC "-//W3C//DTD SVG 1.1//EN" "http://www.w3.org/Graphics/SVG/1.1/DTD/svg11.dtd">
<svg t="1719045686536" class="icon" viewBox="0 0 1024 1024" version="1.1" xmlns="http://www.w3.org/2000/svg" p-id="4528" xmlns:xlink="http://www.w3.org/1999/xlink" width="200" height="200"><path d="M860.16 163.84V512q0 3.52 0.64 7.04 0.704 3.392 2.112 6.656 1.28 3.264 3.264 6.208 1.984 2.944 4.48 5.44 2.496 2.496 5.44 4.48 2.944 1.92 6.208 3.264 3.2 1.344 6.72 2.048 3.456 0.704 6.976 0.704t7.04-0.64q3.392-0.768 6.656-2.112 3.264-1.28 6.208-3.264 2.944-1.984 5.44-4.48 2.496-2.496 4.48-5.44 1.92-2.944 3.264-6.208 1.408-3.2 2.048-6.72 0.704-3.456 0.704-6.976V128q0-3.52-0.64-7.04-0.704-3.392-2.112-6.656-1.28-3.264-3.264-6.208-1.984-2.944-4.48-5.44-2.496-2.496-5.44-4.48-2.944-1.92-6.208-3.264-3.2-1.344-6.72-2.048-3.456-0.704-6.976-0.704H128q-3.52 0-7.04 0.64-3.392 0.768-6.656 2.112-3.264 1.28-6.208 3.264-2.944 1.984-5.44 4.48-2.496 2.496-4.48 5.44-1.92 2.944-3.264 6.208-1.344 3.2-2.048 6.72-0.704 3.456-0.704 6.976v768q0 3.52 0.64 7.04 0.768 3.392 2.112 6.656 1.28 3.264 3.264 6.208 1.984 2.944 4.48 5.44 2.496 2.496 5.44 4.48 2.944 1.92 6.208 3.264 3.2 1.408 6.72 2.048 3.456 0.704 6.976 0.704h384q3.52 0 7.04-0.64 3.392-0.704 6.656-2.112 3.264-1.28 6.208-3.264 2.944-1.984 5.44-4.48 2.496-2.496 4.48-5.44 1.92-2.944 3.264-6.208 1.344-3.2 2.048-6.72 0.704-3.456 0.704-6.976t-0.64-7.04q-0.768-3.392-2.112-6.656-1.28-3.264-3.264-6.208-1.984-2.944-4.48-5.44-2.496-2.496-5.44-4.48-2.944-1.92-6.208-3.264-3.2-1.408-6.72-2.048-3.456-0.704-6.976-0.704H163.84V163.84h696.32zM505.216 324.992q5.056-5.12 7.808-11.648 2.688-6.592 2.688-13.696 0-3.584-0.64-7.04-0.704-3.456-2.048-6.72-1.344-3.2-3.328-6.208-1.92-2.88-4.48-5.376-2.496-2.56-5.44-4.48-2.88-1.92-6.144-3.328-3.264-1.28-6.72-2.048-3.52-0.64-7.04-0.64-7.104 0-13.696 2.688-6.592 2.752-11.648 7.808L273.536 455.296q-5.056 5.056-7.744 11.648-2.752 6.592-2.752 13.696 0 3.52 0.64 7.04 0.704 3.392 2.112 6.656 1.28 3.264 3.264 6.208 1.92 2.944 4.48 5.44 2.496 2.496 5.44 4.48 2.944 1.92 6.208 3.264 3.2 1.344 6.72 2.048 3.456 0.704 6.976 0.704 7.104 0 13.696-2.752 6.592-2.688 11.648-7.744l180.992-180.992z m213.12 31.36q5.12-5.12 7.808-11.648 2.688-6.592 2.688-13.696 0-3.584-0.64-7.04-0.704-3.456-2.048-6.72-1.344-3.2-3.328-6.144-1.92-2.944-4.48-5.44-2.496-2.56-5.44-4.48-2.88-1.92-6.144-3.328-3.264-1.28-6.72-2.048-3.456-0.64-7.04-0.64-7.104 0-13.696 2.688-6.592 2.752-11.648 7.808l-361.984 361.984q-5.12 5.12-7.808 11.648-2.688 6.592-2.688 13.696 0 3.584 0.64 7.04 0.704 3.456 2.048 6.72 1.344 3.2 3.328 6.208 1.92 2.88 4.48 5.376 2.496 2.56 5.44 4.48 2.88 1.92 6.144 3.328 3.264 1.344 6.72 2.048 3.456 0.64 7.04 0.64 7.104 0 13.696-2.688 6.592-2.752 11.648-7.808l361.984-361.984z m32.64 212.48q5.12-5.12 7.808-11.648 2.688-6.592 2.688-13.696 0-3.584-0.64-7.04-0.704-3.456-2.048-6.72-1.344-3.2-3.328-6.208-1.92-2.88-4.48-5.376-2.496-2.56-5.44-4.48-2.88-1.92-6.144-3.328-3.264-1.344-6.72-2.048-3.456-0.64-7.04-0.64-7.104 0-13.696 2.688-6.592 2.752-11.648 7.808l-180.992 180.992q-5.056 5.056-7.744 11.648-2.752 6.592-2.752 13.696 0 3.52 0.64 7.04 0.768 3.392 2.112 6.656 1.28 3.264 3.264 6.208 1.984 2.944 4.48 5.44 2.496 2.496 5.44 4.48 2.944 1.92 6.208 3.264 3.2 1.344 6.72 2.048 3.456 0.64 6.976 0.64 7.104 0 13.696-2.688t11.648-7.744l180.992-180.992zM704 796.16h256q3.52 0 7.04 0.64 3.392 0.704 6.656 2.112 3.264 1.28 6.208 3.264 2.944 1.984 5.44 4.48 2.496 2.496 4.48 5.44 1.92 2.944 3.264 6.208 1.408 3.2 2.048 6.72 0.704 3.456 0.704 6.976t-0.64 7.04q-0.704 3.392-2.112 6.656-1.28 3.264-3.264 6.208-1.984 2.944-4.48 5.44-2.496 2.496-5.44 4.48-2.944 1.92-6.208 3.264-3.2 1.408-6.72 2.048-3.456 0.704-6.976 0.704h-256q-3.52 0-7.04-0.64-3.392-0.704-6.656-2.112-3.264-1.28-6.208-3.264-2.944-1.984-5.44-4.48-2.496-2.496-4.48-5.44-1.92-2.944-3.264-6.208-1.344-3.2-2.048-6.72-0.704-3.456-0.704-6.976t0.64-7.04q0.768-3.392 2.112-6.656 1.28-3.264 3.264-6.208 1.984-2.944 4.48-5.44 2.496-2.496 5.44-4.48 2.944-1.92 6.208-3.264 3.2-1.408 6.72-2.048 3.456-0.704 6.976-0.704z" p-id="4529" fill="#1296db"></path></svg>